<svg width="13" height="16" viewBox="0 0 13 16" fill="none" xmlns="http://www.w3.org/2000/svg">
<path d="M12.8778 0.145004C12.8585 0.101615 12.8269 0.0648056 12.787 0.03906C12.7471 0.0133145 12.7006 -0.000255464 12.6532 3.64241e-06H5.69968C5.65792 7.33269e-05 5.61685 0.0106378 5.58022 0.0307292C5.54359 0.0508207 5.51258 0.0797969 5.49003 0.115004L0.143866 8.615C0.118128 8.65201 0.10309 8.69542 0.100409 8.74045C0.0977289 8.78547 0.10751 8.83037 0.128674 8.87018C0.149838 8.90999 0.181565 8.94318 0.220357 8.96609C0.25915 8.98899 0.303502 9.00073 0.348527 9H4.1772L0.797785 15.625C0.778383 15.6644 0.769263 15.7081 0.771278 15.752C0.773293 15.7958 0.786376 15.8385 0.809307 15.8759C0.832237 15.9134 0.864267 15.9444 0.902407 15.9661C0.940546 15.9878 0.98355 15.9995 1.02741 16H2.52493C2.55957 16.0002 2.59389 15.9932 2.62568 15.9795C2.65748 15.9657 2.68607 15.9454 2.70963 15.92L11.4801 6.425C11.515 6.38945 11.5384 6.3443 11.5474 6.29533C11.5564 6.24635 11.5507 6.1958 11.5308 6.15013C11.511 6.10447 11.478 6.06579 11.436 6.03904C11.3941 6.01229 11.3451 5.9987 11.2954 6H7.931L12.8379 0.410003C12.8695 0.374491 12.8901 0.330518 12.8972 0.283458C12.9043 0.236397 12.8976 0.188286 12.8778 0.145004Z" fill="#2B788B"/>
</svg>
